<svg width="64" height="64" viewBox="0 0 64 64" fill="none" xmlns="http://www.w3.org/2000/svg">
<path d="M53.9775 13.8285C49.9354 11.9738 45.6008 10.6073 41.0688 9.82467C40.9862 9.80957 40.9038 9.84731 40.8613 9.92281C40.3038 10.9143 39.6863 12.2078 39.2539 13.2245C34.3794 12.4947 29.5299 12.4947 24.7553 13.2245C24.3228 12.1852 23.6829 10.9143 23.1229 9.92281C23.0804 9.84983 22.998 9.81209 22.9154 9.82467C18.3859 10.6048 14.0513 11.9713 10.0067 13.8285C9.97168 13.8436 9.94167 13.8687 9.92175 13.9014C1.7 26.1846 -0.552287 38.1658 0.552607 49.9985C0.557607 50.0563 0.590103 50.1117 0.6351 50.1469C6.05958 54.1305 11.3141 56.5489 16.4711 58.1519C16.5536 58.1771 16.6411 58.1469 16.6936 58.0789C17.9135 56.4131 19.0009 54.6565 19.9332 52.8093C19.9882 52.7012 19.9357 52.5728 19.8233 52.53C18.0984 51.8757 16.4561 51.078 14.8762 50.1721C14.7513 50.0991 14.7413 49.9204 14.8562 49.8348C15.1887 49.5857 15.5212 49.3265 15.8387 49.0648C15.8961 49.017 15.9761 49.0069 16.0437 49.0371C26.4226 53.7757 37.6591 53.7757 47.9155 49.0371C47.9831 49.0044 48.0631 49.0145 48.123 49.0623C48.4406 49.324 48.773 49.5857 49.108 49.8348C49.223 49.9204 49.2155 50.0991 49.0905 50.1721C47.5106 51.0956 45.8683 51.8757 44.1409 52.5275C44.0285 52.5703 43.9785 52.7012 44.0335 52.8093C44.9858 54.6539 46.0733 56.4105 47.2706 58.0764C47.3207 58.1469 47.4106 58.1771 47.4931 58.1519C52.6751 56.5489 57.9296 54.1305 63.3541 50.1469C63.4016 50.1117 63.4316 50.0588 63.4366 50.0009C64.759 36.3211 61.2218 24.4381 54.06 13.9039C54.0425 13.8687 54.0125 13.8436 53.9775 13.8285ZM21.4832 42.7936C18.3584 42.7936 15.7836 39.9248 15.7836 36.4017C15.7836 32.8785 18.3084 30.0097 21.4832 30.0097C24.6828 30.0097 27.2326 32.9037 27.1826 36.4017C27.1826 39.9248 24.6578 42.7936 21.4832 42.7936ZM42.5561 42.7936C39.4314 42.7936 36.8567 39.9248 36.8567 36.4017C36.8567 32.8785 39.3814 30.0097 42.5561 30.0097C45.7558 30.0097 48.3055 32.9037 48.2556 36.4017C48.2556 39.9248 45.7558 42.7936 42.5561 42.7936Z" fill="#7581F0"/>
</svg>
