<svg width="64" height="64" viewBox="0 0 64 64" fill="none" xmlns="http://www.w3.org/2000/svg">
<path fill-rule="evenodd" clip-rule="evenodd" d="M5.43214 30.1154C21.9694 22.9104 32.9969 18.1604 38.5145 15.8654C54.2684 9.31284 57.5419 8.17459 59.6756 8.13701C60.1448 8.12874 61.1941 8.24504 61.8738 8.79654C62.4477 9.26222 62.6056 9.89128 62.6811 10.3328C62.7567 10.7743 62.8508 11.7801 62.776 12.566C61.9223 21.536 58.2283 43.3037 56.349 53.3503C55.5538 57.6014 53.988 59.0267 52.4722 59.1662C49.1779 59.4693 46.6764 56.9891 43.4857 54.8976C38.4929 51.6248 35.6723 49.5874 30.8259 46.3937C25.2251 42.7029 28.8559 40.6744 32.0478 37.3591C32.8831 36.4915 47.3978 23.2893 47.6787 22.0917C47.7139 21.9419 47.7465 21.3835 47.4148 21.0887C47.0831 20.7939 46.5936 20.8947 46.2403 20.9749C45.7395 21.0885 37.7635 26.3604 22.3122 36.7905C20.0482 38.3451 17.9976 39.1025 16.1603 39.0628C14.1348 39.0191 10.2386 37.9176 7.34218 36.9761C3.7896 35.8213 0.966081 35.2107 1.21195 33.2495C1.34001 32.228 2.74674 31.1833 5.43214 30.1154Z" fill="#62B7F0"/>
</svg>
