<svg width="128" height="128" viewBox="0 0 128 128" fill="none" xmlns="http://www.w3.org/2000/svg">
<g clip-path="url(#clip0_113_442)">
<path d="M64.0001 66C70.5269 65.9999 76.9071 64.0645 82.3338 60.4383C87.7606 56.8122 91.9902 51.6583 94.4879 45.6283C96.9855 39.5984 97.639 32.9632 96.3656 26.5618C95.0923 20.1605 91.9493 14.2805 87.3342 9.66536C82.719 5.05027 76.839 1.90736 70.4376 0.634074C64.0362 -0.639209 57.4011 0.0143223 51.3711 2.51202C45.3412 5.00973 40.1873 9.23942 36.5612 14.6662C32.9352 20.093 30.9998 26.4732 30.9998 33C31.0097 41.7492 34.4897 50.1371 40.6763 56.3237C46.863 62.5103 55.251 65.9902 64.0001 66ZM64.0001 4.00001C69.7358 4.00008 75.3426 5.70095 80.1116 8.88755C84.8805 12.0742 88.5975 16.6034 90.7924 21.9024C92.9873 27.2015 93.5615 33.0324 92.4425 38.6578C91.3235 44.2833 88.5615 49.4505 84.5058 53.5062C80.45 57.5619 75.2827 60.3239 69.6573 61.4428C64.0319 62.5618 58.2009 61.9874 52.9019 59.7925C47.6029 57.5975 43.0737 53.8805 39.8872 49.1115C36.7006 44.3425 34.9998 38.7357 34.9998 33C35.0086 25.3114 38.0668 17.9402 43.5035 12.5035C48.9402 7.06686 56.3115 4.00873 64.0001 4.00001Z" fill="url(#paint0_linear_113_442)"/>
<path d="M6.22409 124L10.6802 82.209C10.7956 80.6472 11.4133 79.1647 12.4408 77.9829C13.4684 76.8011 14.8508 75.9836 16.3814 75.6523L42.9046 69.9626L48.5714 78.4626C49.7056 77.7472 50.888 77.1115 52.1103 76.5599L46.7113 68.4614C47.3803 67.9272 47.938 67.2668 48.3527 66.5178C47.1383 65.9511 45.9555 65.3189 44.8097 64.6238C44.6511 64.9145 44.4331 65.1686 44.1699 65.3695C43.9067 65.5705 43.6043 65.7139 43.2821 65.7905L15.6128 71.7275C13.2432 72.2217 11.0963 73.4674 9.49117 75.2793C7.88605 77.0912 6.90842 79.3727 6.70357 81.7846L2.01109 125.788C1.98491 126.066 2.01667 126.347 2.10436 126.612C2.19205 126.878 2.33378 127.122 2.5206 127.33C2.70742 127.538 2.93528 127.704 3.18981 127.82C3.44434 127.935 3.72001 127.996 3.99944 128H49.3289C47.4167 126.873 45.6394 125.531 44.0316 124H6.22409Z" fill="url(#paint1_linear_113_442)"/>
<path d="M125.989 126.169L121.296 82.165C121.096 79.7644 120.128 77.4919 118.537 75.6834C116.945 73.8749 114.814 72.6263 112.458 72.122L84.7168 66.1714C84.3953 66.0943 84.0938 65.95 83.8319 65.7482C83.5701 65.5463 83.3539 65.2913 83.1976 65C82.052 65.6954 80.8694 66.3281 79.6551 66.8951C80.0685 67.6436 80.624 68.3041 81.2905 68.8396L75.8896 76.9408C77.1119 77.4923 78.2944 78.1281 79.4285 78.8435L85.0952 70.3436L111.69 76.0469C113.206 76.3883 114.573 77.2089 115.587 78.3872C116.601 79.5655 117.208 81.0389 117.32 82.5893L121.776 124.381H83.9684C82.3606 125.911 80.5833 127.253 78.671 128.381H124C124.28 128.378 124.556 128.317 124.811 128.201C125.065 128.086 125.293 127.919 125.48 127.711C125.667 127.503 125.809 127.259 125.896 126.994C125.984 126.728 126.015 126.447 125.989 126.169Z" fill="url(#paint2_linear_113_442)"/>
<path d="M89.0003 103C89.0004 98.0554 87.5342 93.2218 84.7871 89.1105C82.0401 84.9992 78.1356 81.7948 73.5674 79.9026C68.9992 78.0103 63.9725 77.5152 59.1229 78.4798C54.2733 79.4444 49.8187 81.8254 46.3223 85.3218C42.8259 88.8181 40.4448 93.2727 39.4802 98.1223C38.5155 102.972 39.0106 107.999 40.9028 112.567C42.795 117.135 45.9993 121.04 50.1106 123.787C54.2219 126.534 59.0554 128 64 128C70.6282 127.993 76.9828 125.356 81.6696 120.669C86.3564 115.983 88.9928 109.628 89.0003 103ZM64 124C59.8466 124 55.7865 122.768 52.3331 120.461C48.8797 118.153 46.1881 114.873 44.5987 111.036C43.0093 107.199 42.5935 102.977 43.4038 98.903C44.2141 94.8294 46.2142 91.0876 49.1511 88.1507C52.088 85.2138 55.8299 83.2138 59.9035 82.4035C63.9771 81.5932 68.1994 82.0091 72.0367 83.5986C75.8739 85.188 79.1536 87.8796 81.4611 91.333C83.7686 94.7865 85.0003 98.8466 85.0003 103C84.9939 108.568 82.7794 113.905 78.8424 117.842C74.9055 121.779 69.5677 123.994 64 124Z" fill="url(#paint3_linear_113_442)"/>
<path d="M66.1798 90.6104C66.1214 90.5991 66.0595 90.5911 66.0001 90.5807V88C66.0001 87.4696 65.7894 86.9609 65.4143 86.5858C65.0393 86.2107 64.5306 86 64.0001 86C63.4697 86 62.961 86.2107 62.5859 86.5858C62.2108 86.9609 62.0001 87.4696 62.0001 88V90.5993C60.9563 90.7596 59.9577 91.1372 59.0689 91.7075C58.1801 92.2777 57.4207 93.0281 56.8399 93.9101C56.1599 95.0299 55.7987 96.3142 55.7952 97.6242C55.7918 98.9343 56.1463 100.22 56.8204 101.344C58.4093 104.061 61.2179 104.888 63.6955 105.619C66.2941 106.385 67.7883 106.898 68.2951 108.531C68.444 109.197 68.3415 109.894 68.0075 110.488C67.6734 111.083 67.1313 111.533 66.4855 111.751C65.7619 112.048 64.9845 112.192 64.2025 112.172C63.4206 112.152 62.6513 111.97 61.9435 111.637C61.2415 111.343 60.6082 110.906 60.0838 110.355C59.5595 109.803 59.1555 109.148 58.8976 108.432C58.8148 108.183 58.6837 107.953 58.5118 107.754C58.3399 107.555 58.1305 107.393 57.8958 107.275C57.661 107.158 57.4053 107.087 57.1434 107.068C56.8815 107.05 56.6184 107.083 56.3693 107.165C56.1201 107.248 55.8896 107.379 55.6911 107.551C55.4926 107.723 55.3299 107.933 55.2123 108.167C55.0947 108.402 55.0244 108.658 55.0056 108.92C54.9868 109.182 55.0198 109.445 55.1026 109.694C55.536 110.939 56.224 112.079 57.1227 113.044C58.0214 114.008 59.1111 114.774 60.3224 115.294C60.8643 115.53 61.4257 115.72 62.0001 115.86V118C62.0001 118.53 62.2108 119.039 62.5859 119.414C62.961 119.789 63.4697 120 64.0001 120C64.5305 120 65.0393 119.789 65.4143 119.414C65.7894 119.039 66.0001 118.53 66.0001 118V116.029C66.723 115.91 67.4285 115.702 68.1007 115.411C69.6478 114.801 70.9142 113.639 71.6558 112.151C72.3973 110.662 72.5614 108.952 72.1164 107.35C70.9494 103.587 67.5548 102.586 64.8273 101.782C62.8067 101.187 61.0616 100.672 60.2715 99.3208C59.9701 98.8305 59.8062 98.268 59.7971 97.6924C59.788 97.1169 59.934 96.5495 60.2198 96.0498C61.1954 94.501 63.5382 94.1748 65.4132 94.5362C66.2586 94.7358 67.0387 95.1489 67.6789 95.7359C68.3192 96.3229 68.7983 97.0643 69.0705 97.8892C69.2127 98.3977 69.5502 98.8294 70.0095 99.0901C70.4688 99.3507 71.0125 99.4191 71.522 99.2804C72.0315 99.1417 72.4655 98.8071 72.7293 98.3496C72.993 97.8921 73.0652 97.3488 72.9299 96.8384C72.4666 95.2904 71.5956 93.8954 70.408 92.7997C69.2204 91.704 67.76 90.9478 66.1798 90.6104Z" fill="url(#paint4_linear_113_442)"/>
</g>
<defs>
<linearGradient id="paint0_linear_113_442" x1="63.9998" y1="67.3887" x2="63.9998" y2="0.563472" gradientUnits="userSpaceOnUse">
<stop stop-color="#006DF0"/>
<stop offset="1" stop-color="#00E7F0"/>
</linearGradient>
<linearGradient id="paint1_linear_113_442" x1="27.0562" y1="129.333" x2="27.0562" y2="65.1649" gradientUnits="userSpaceOnUse">
<stop stop-color="#006DF0"/>
<stop offset="1" stop-color="#00E7F0"/>
</linearGradient>
<linearGradient id="paint2_linear_113_442" x1="100.944" y1="129.714" x2="100.944" y2="65.5411" gradientUnits="userSpaceOnUse">
<stop stop-color="#006DF0"/>
<stop offset="1" stop-color="#00E7F0"/>
</linearGradient>
<linearGradient id="paint3_linear_113_442" x1="64" y1="129.052" x2="64" y2="78.4263" gradientUnits="userSpaceOnUse">
<stop stop-color="#006DF0"/>
<stop offset="1" stop-color="#00E7F0"/>
</linearGradient>
<linearGradient id="paint4_linear_113_442" x1="63.9986" y1="120.715" x2="63.9986" y2="86.2903" gradientUnits="userSpaceOnUse">
<stop stop-color="#006DF0"/>
<stop offset="1" stop-color="#00E7F0"/>
</linearGradient>
<clipPath id="clip0_113_442">
<rect width="128" height="128" fill="white"/>
</clipPath>
</defs>
</svg>
