<svg width="128" height="128" viewBox="0 0 128 128" fill="none" xmlns="http://www.w3.org/2000/svg">
<g clip-path="url(#clip0_113_448)">
<path d="M42.8646 119.014C41.029 123.891 30.4639 132.07 27.8425 125.632L17.582 100.488C17.5538 100.421 17.5308 100.357 17.518 100.291C16.8217 98.3526 17.6844 96.8218 19.4278 95.6621C22.8377 93.3914 30.5817 92.5696 33.3234 94.5434L35.2972 92.9408C41.4002 87.8464 45.4348 85.9878 51.2332 85.6781C49.9276 81.6435 49.5999 77.312 50.094 72.8704C51.0002 64.7142 57.0316 56.3917 62.2847 49.5411C60.7103 48.0896 60.1446 45.9571 60.9126 43.9962C57.5743 42.3347 57.0598 38.4666 59.0694 35.6582C56.2098 32.9728 56.7628 27.8784 60.3314 26.0147C57.8994 22.0954 60.485 16.5018 65.3542 16.1178L60.1522 7.33695C58.9414 5.34783 59.5199 3.27935 61.7932 2.48319C65.0879 1.32095 71.6697 3.06431 75.5302 4.75391C77.8342 2.09407 82.6035 -0.307207 86.3385 0.0255934C89.6409 0.314873 91.4841 2.72383 90.8825 6.37439L90.3372 9.68959C96.215 10.793 97.6434 12.7078 101.432 15.3933C101.947 13.7472 103.457 12.6131 105.19 12.4544L117.281 11.3306C119.706 11.1053 121.577 13.2173 121.577 15.4803V49.5718C121.577 51.8861 119.624 54.0134 117.23 53.7216L105.139 52.2496C103.007 51.9885 101.25 50.327 101.25 48.0998V47.4035C98.9004 48.8192 96.773 49.8918 94.7916 50.6906C100.393 57.1776 104.937 63.2653 105.989 72.1126C106.867 79.5085 105.764 86.3565 102.303 91.9731C110.459 90.2246 115.307 97.344 108.145 101.604L92.8921 110.689C92.101 111.16 87.0348 113.034 81.9481 114.739C78.9145 115.763 72.5785 117.788 71.5212 117.832V117.839L42.9874 119.007C42.9516 119.007 42.9081 119.007 42.8646 119.014ZM39.3522 118.899L30.3385 96.8397C30.3308 96.8166 28.0524 97.2032 25.6793 97.623C24.3378 97.856 22.638 98.2758 21.6089 98.9645C21.4553 99.0669 21.2607 98.9363 21.2454 98.9722L31.5135 124.145C31.5494 124.232 31.5212 124.022 31.6006 124.006C32.6527 123.84 34.263 122.801 35.1922 122.112C37.2991 120.553 39.3753 118.95 39.3522 118.899ZM55.4342 85.6781C58.4882 85.8086 62.6406 86.2285 66.8927 86.6586C74.7724 87.4496 74.6367 95.8592 68.0985 98.1811C69.4041 98.7187 71.8438 99.5098 73.2287 99.7197C74.3474 99.8861 81.6383 100.206 82.3346 99.9219L94.5561 94.9376C97.3439 92.6362 99.5788 89.5744 100.92 85.7139C102.19 82.071 102.661 77.7037 102.052 72.5786C101.051 64.1254 96.2175 58.3194 90.7084 52.0192C85.701 53.2531 81.2825 52.8384 75.6146 52.3085C73.2134 52.0832 70.5791 51.8374 67.5225 51.6992C67.4559 51.6992 67.3919 51.6915 67.3254 51.6838C66.8031 51.6045 66.3167 51.5098 65.8585 51.3869C60.9535 57.7587 54.8505 65.8995 54.0313 73.303C53.5474 77.6294 53.9314 81.8381 55.4342 85.6781ZM35.7759 97.6589C35.566 97.8253 35.3561 97.9917 35.1436 98.1453L42.0735 115.118C42.3423 115.082 42.5881 115.059 42.8364 115.052C44.0268 115 53.5039 114.624 61.4425 114.296C65.5052 114.13 69.1916 113.976 71.1807 113.889C73.221 113.418 76.9791 112.236 80.6937 110.986C85.5858 109.345 90.2937 107.64 90.8748 107.292L106.127 98.2144C107.077 97.6486 107.832 96.9523 107.607 96.6118C107.499 96.4531 107.287 96.2842 106.998 96.1331C105.807 95.5238 103.834 95.4291 101.678 96.3072L83.8195 103.593C82.9644 103.941 80.6348 104.02 78.1593 103.956C76.9766 103.921 72.151 103.716 70.7865 103.355L52.0857 98.3757C51.223 98.1427 50.5906 97.344 50.6137 96.4173C50.6418 95.3216 51.5506 94.4589 52.6386 94.487L64.6348 94.7712C67.8348 94.8429 69.3734 92.7616 68.8665 91.6864C68.4236 90.7648 66.9644 90.6419 65.6818 90.5114C50.7622 89.0163 46.6764 88.6016 37.8444 95.9821C37.0969 96.599 36.4134 97.1571 35.7759 97.6589ZM39.534 38.2336C40.3097 37.4579 41.5666 37.4579 42.3423 38.2336C43.118 39.0093 43.118 40.2662 42.3423 41.0419L21.7625 61.6218C20.9868 62.3898 19.7298 62.3898 18.9542 61.6218C18.1862 60.8461 18.1862 59.5891 18.9542 58.8134L39.534 38.2336ZM27.5814 37.8982C31.7542 42.071 28.7871 49.2339 22.8863 49.2339C16.9932 49.2339 14.0262 42.071 18.1913 37.8982C20.7897 35.3075 24.9906 35.3075 27.5814 37.8982ZM25.5564 42.5933C25.5564 40.2202 22.6764 39.0298 20.9996 40.7066C19.3228 42.3834 20.5132 45.2634 22.8863 45.2634C24.3686 45.2659 25.5564 44.0755 25.5564 42.5933ZM43.1052 52.5568C47.278 56.7296 44.311 63.8925 38.4102 63.8925C32.5094 63.8925 29.55 56.7296 33.7151 52.5568C36.311 49.9661 40.5145 49.9661 43.1052 52.5568ZM41.0802 57.2518C41.0802 54.8787 38.2002 53.6883 36.5234 55.3651C34.8466 57.0419 36.037 59.9219 38.4102 59.9219C39.8822 59.9245 41.0802 58.7341 41.0802 57.2518ZM30.6508 25.6947C44.0319 25.6947 54.8812 36.544 54.8812 49.9251C54.8812 63.3062 44.0319 74.1632 30.6508 74.1632C17.2697 74.1632 6.42041 63.3062 6.42041 49.9251C6.42297 36.5414 17.2697 25.6947 30.6508 25.6947ZM44.9766 35.5994C37.0662 27.6813 24.238 27.6813 16.3199 35.5994C8.40953 43.5098 8.40953 56.3379 16.3199 64.256C24.238 72.1664 37.0662 72.1664 44.9766 64.256C52.8946 56.3379 52.8946 43.5098 44.9766 35.5994ZM117.542 15.2806L105.546 16.3917C105.423 16.407 105.218 16.471 105.218 16.6016L105.239 48.1613C105.311 48.2406 105.441 48.2918 105.602 48.3149L117.555 49.7741L117.606 49.577V15.4829L117.542 15.2806ZM69.9622 16.1152C73.2492 16.1382 77.6831 16.2253 81.5359 15.1706C83.5762 14.6125 85.3094 13.7472 85.8828 12.3981L86.9785 5.74463C87.1961 4.40319 86.9785 4.05503 85.998 3.96799C83.4431 3.73503 78.8659 6.05695 78.0671 7.96671C77.5731 9.12895 76.334 9.55647 75.3023 9.02655C71.7747 7.21151 66.9055 5.92127 64.0025 6.07231L69.9622 16.1152ZM75.9705 48.3789C84.9407 49.2134 90.4985 49.7357 101.253 42.7341V20.0192C99.4738 18.9158 98.2041 17.9507 97.0879 17.1008C94.9759 15.4906 93.4655 14.3437 89.6998 13.6038C87.6671 19.6557 77.1302 20.0986 72.2995 20.0832L65.9071 20.0474C63.9334 20.0474 62.8735 22.2669 63.5852 23.7338C64.0204 24.6272 65.1954 25.3235 67.3663 25.3235V29.2787H63.3522C61.4937 29.2787 60.8486 30.9248 61.3631 32.1536C61.5961 32.7117 62.1388 33.1622 63.0041 33.2339C63.4546 33.1827 63.918 33.1904 64.4044 33.2621C65.4847 33.4285 66.2322 34.4371 66.0735 35.52C65.9148 36.5568 64.9778 37.2838 63.9462 37.2045H63.3574C62.5023 37.2915 61.4348 38.889 62.0082 39.8746C62.3564 40.4685 63.3062 40.9114 65.1366 40.8986C65.2594 40.8832 65.39 40.8832 65.5206 40.8832C66.6162 40.8832 67.502 41.769 67.502 42.8646C67.502 43.9603 66.6162 44.8538 65.5206 44.8538C64.7961 44.8538 64.2943 45.5578 64.6502 46.2336C65.1289 47.1322 66.8262 47.6621 67.822 47.7568C70.8607 47.9002 73.5308 48.1459 75.9705 48.3789ZM80.2585 87.36V89.1674C80.2585 90.263 79.3727 91.1565 78.277 91.1565C77.1737 91.1565 76.2879 90.263 76.2879 89.1674V87.36C72.4044 86.7354 68.6386 84.073 68.6386 80.0666C68.6386 78.9709 69.5244 78.0851 70.6201 78.0851C71.7158 78.0851 72.6092 78.9709 72.6092 80.0666C72.6092 83.0566 78.9068 84.9152 82.5369 82.3168C83.3996 81.6998 83.9372 80.9011 83.9372 80.0666C83.9372 77.5782 80.9394 77.0688 77.9494 76.5619C73.2902 75.7709 68.6386 74.9722 68.6386 69.1456C68.6386 65.1392 72.4044 62.4768 76.2879 61.8522V60.0448C76.2879 58.9491 77.1737 58.0557 78.277 58.0557C79.3727 58.0557 80.2585 58.9491 80.2585 60.0448V61.8522C84.142 62.4768 87.9078 65.1392 87.9078 69.1456C87.9078 70.2413 87.022 71.127 85.9263 71.127C84.8307 71.127 83.9372 70.2413 83.9372 69.1456C83.9372 66.1555 77.6396 64.297 74.0095 66.8877C73.1468 67.5123 72.6092 68.311 72.6092 69.1456C72.6092 71.6339 75.607 72.1434 78.597 72.6502C83.2562 73.4413 87.9078 74.2323 87.9078 80.0666C87.9078 84.073 84.142 86.7379 80.2585 87.36Z" fill="url(#paint0_linear_113_448)"/>
</g>
<defs>
<linearGradient id="paint0_linear_113_448" x1="63.9986" y1="130.698" x2="63.9986" y2="1.08751" gradientUnits="userSpaceOnUse">
<stop stop-color="#006DF0"/>
<stop offset="1" stop-color="#00E7F0"/>
</linearGradient>
<clipPath id="clip0_113_448">
<rect width="128" height="128" fill="white"/>
</clipPath>
</defs>
</svg>
