<svg width="164" height="164" viewBox="0 0 164 164" fill="none" xmlns="http://www.w3.org/2000/svg">
<path d="M160.095 80.8973L154.41 80.0944C154.448 79.1081 154.469 78.1362 154.469 77.1918C154.469 56.5731 146.44 37.1886 131.86 22.609C117.281 8.02927 97.8963 0 77.2773 0C46.2292 0 18.3267 18.4693 6.19298 47.0525C5.67452 48.2736 6.24422 49.6836 7.46528 50.2017C8.68634 50.7202 10.0963 50.1508 10.6145 48.9294C11.2908 47.3363 12.021 45.7777 12.7994 44.253C17.1277 41.0299 21.996 38.1778 27.292 35.7322C25.003 42.5318 23.2843 49.7906 22.1855 57.3369C16.3528 58.5929 11.0948 60.0592 6.55357 61.7132C6.77549 60.6952 7.01727 59.6817 7.28306 58.6742C7.62155 57.3917 6.85619 56.0777 5.57365 55.7392C4.29078 55.4011 2.97686 56.1664 2.63837 57.449C0.944321 63.8694 0.0854492 70.5117 0.0854492 77.1918C0.0854492 97.8105 8.11472 117.195 22.6944 131.775C37.2741 146.354 56.6589 154.384 77.2773 154.384C85.1029 154.384 92.817 153.215 100.23 150.908C104.341 154.683 109.107 157.822 114.406 160.133L122.817 163.8C123.123 163.933 123.449 164 123.776 164C124.103 164 124.43 163.933 124.736 163.8L133.147 160.133C137.233 158.351 141.076 156.039 144.569 153.261C145.607 152.435 145.779 150.924 144.953 149.886C144.127 148.848 142.617 148.676 141.578 149.502C138.413 152.02 134.931 154.115 131.228 155.73L123.777 158.978L116.326 155.73C111.108 153.455 106.461 150.292 102.526 146.468C102.506 146.449 102.487 146.43 102.467 146.412C93.6615 137.827 88.4423 125.912 88.4423 113.154V85.6092L94.985 84.6857C104.375 83.3596 113.317 79.6093 120.844 73.8402L123.18 72.0498C123.531 71.7802 124.022 71.7802 124.374 72.0495L126.71 73.8406C134.237 79.6096 143.179 83.3599 152.569 84.6857L159.111 85.6092V113.154C159.111 123.895 155.349 134.38 148.518 142.678C147.676 143.703 147.822 145.216 148.846 146.059C149.871 146.903 151.384 146.756 152.227 145.732C159.764 136.576 163.915 125.006 163.915 113.154V85.2938C163.914 83.0947 162.273 81.2047 160.095 80.8973ZM133.005 62.4222C139.142 63.8047 144.548 65.4212 148.986 67.2373C149.433 70.5095 149.666 73.8326 149.666 77.1921C149.666 77.8736 149.653 78.572 149.632 79.2794C144.005 78.06 138.615 75.883 133.723 72.8517C133.615 69.3387 133.374 65.8571 133.005 62.4222ZM98.1294 27.1015C106.296 28.3988 114.079 30.4522 121.237 33.1915C123.98 40.359 126.044 48.1602 127.348 56.3355C119.467 54.8762 110.713 53.7736 101.397 53.0736C100.696 43.7487 99.591 34.9889 98.1294 27.1015ZM96.5337 52.7466C90.3032 52.3797 83.8559 52.1885 77.2776 52.1885C70.7 52.1885 64.252 52.3787 58.0215 52.7457C58.7683 43.2571 59.941 34.3337 61.4756 26.4044C66.6346 25.7931 71.9204 25.4757 77.2776 25.4757C82.6348 25.4757 87.921 25.7931 93.08 26.4044C94.6142 34.3341 95.7869 43.2577 96.5337 52.7466ZM110.196 12.6855C113.414 17.0029 116.266 21.883 118.716 27.1998C111.922 24.914 104.67 23.1975 97.1303 22.1001C95.8734 16.2648 94.4076 10.9985 92.7523 6.45595C98.8314 7.77308 104.686 9.86582 110.196 12.6855ZM127.239 35.721C132.556 38.1743 137.443 41.0375 141.785 44.2745C144.604 49.7857 146.697 55.6406 148.014 61.7206C143.469 60.064 138.202 58.5964 132.362 57.3388C131.258 49.7934 129.53 42.5266 127.239 35.721ZM135.968 34.7997C132.5 32.8459 128.812 31.0785 124.941 29.5065C123.37 25.6355 121.602 21.9534 119.656 18.491C122.757 20.7394 125.704 23.2449 128.464 26.0054C131.22 28.762 133.722 31.7043 135.968 34.7997ZM87.2324 5.48339C89.0479 9.91994 90.6638 15.3236 92.0459 21.4577C87.2068 20.9405 82.2704 20.6722 77.2776 20.6722C72.2845 20.6722 67.3484 20.9412 62.5093 21.4583C63.8911 15.3262 65.5064 9.9241 67.3208 5.4882C70.5882 5.03763 73.9129 4.80353 77.2773 4.80353C80.6369 4.80353 83.9603 5.03602 87.2324 5.48339ZM61.8016 6.46812C60.1476 11.0084 58.6822 16.2686 57.4262 22.0998C49.8782 23.1982 42.6185 24.9175 35.818 27.2069C38.2655 21.906 41.1208 17.0333 44.3475 12.7018C49.8315 9.90393 55.6921 7.79838 61.8016 6.46812ZM18.5646 34.8112C23.1354 28.4721 28.6646 22.9708 34.9018 18.4712C32.9442 21.9438 31.173 25.6358 29.5984 29.5113C25.7248 31.0846 22.0354 32.8549 18.5646 34.8112ZM33.2888 33.2033C40.4537 30.4582 48.2476 28.4007 56.4251 27.1019C54.9639 34.9883 53.8597 43.749 53.1591 53.0726C43.8344 53.773 35.075 54.8785 27.1873 56.3397C28.4862 48.1618 30.5437 40.3683 33.2888 33.2033ZM86.0312 128.615C83.1235 128.805 80.1924 128.909 77.2773 128.909C71.9201 128.909 66.6343 128.591 61.4753 127.98C59.941 120.05 58.768 111.127 58.0212 101.638C64.2517 102.005 70.699 102.196 77.2773 102.196C79.3908 102.196 81.5214 102.175 83.6384 102.135V113.154C83.6388 118.492 84.4739 123.694 86.0312 128.615ZM56.4239 127.282C48.2466 125.983 40.4534 123.926 33.2884 121.181C30.5437 114.016 28.4862 106.223 27.187 98.0462C35.0741 99.5074 43.8348 100.613 53.1587 101.314C53.8594 110.636 54.9629 119.397 56.4239 127.282ZM44.3593 141.699C41.1281 137.364 38.2694 132.487 35.8193 127.181C42.6195 129.47 49.8789 131.189 57.4259 132.287C58.6831 138.123 60.1501 143.386 61.8061 147.929C55.7257 146.612 49.8706 144.519 44.3593 141.699ZM6.54076 92.6637C11.0846 94.3196 16.348 95.7873 22.1852 97.0448C23.2836 104.592 25.0027 111.852 27.292 118.652C21.9844 116.201 17.106 113.342 12.7706 110.11C9.95095 104.599 7.85789 98.7437 6.54076 92.6637ZM26.4898 92.9942C25.8785 87.8352 25.5612 82.5494 25.5612 77.1921C25.5612 71.8349 25.8785 66.5491 26.4898 61.3901C34.4195 59.8556 43.3432 58.6829 52.8321 57.9361C52.4651 64.1666 52.2739 70.6139 52.2739 77.1921C52.2739 83.7704 52.4651 90.2177 52.8324 96.4485C43.3432 95.7014 34.4195 94.5287 26.4898 92.9942ZM21.5432 62.4238C21.026 67.2629 20.7573 72.199 20.7573 77.1921C20.7573 82.1853 21.026 87.1214 21.5432 91.9605C15.409 90.5783 10.0057 88.9621 5.56884 87.147C5.12147 83.8748 4.88898 80.5517 4.88898 77.1921C4.88898 73.854 5.11987 70.5268 5.57365 67.2354C10.0092 65.4209 15.4113 63.8057 21.5432 62.4238ZM18.589 119.587C22.0527 121.538 25.7341 123.304 29.5987 124.873C31.1685 128.737 32.9339 132.419 34.8845 135.882C31.7897 133.637 28.8474 131.135 26.0915 128.378C23.3355 125.623 20.8342 122.682 18.589 119.587ZM67.3228 148.901C65.5073 144.464 63.8914 139.06 62.509 132.926C67.3481 133.443 72.2842 133.712 77.2773 133.712C80.773 133.712 84.2924 133.572 87.7695 133.312C88.588 135.225 89.526 137.081 90.5671 138.875C89.5346 142.637 88.417 146.002 87.2328 148.899C83.9475 149.351 80.6234 149.581 77.277 149.581C73.918 149.581 70.5946 149.348 67.3228 148.901ZM94.0375 144.101C94.7945 145.1 95.5877 146.074 96.4174 147.017C95.2028 147.349 93.9805 147.65 92.7507 147.918C93.1911 146.703 93.6202 145.431 94.0375 144.101ZM94.3132 79.9295L87.4579 80.8973C85.2806 81.2047 83.6384 83.0947 83.6384 85.2938V97.3308C81.5217 97.3715 79.3908 97.3926 77.2773 97.3926C70.6138 97.3926 64.041 97.1851 57.6805 96.7893C57.2847 90.4288 57.0771 83.8559 57.0771 77.1921C57.0771 70.5284 57.2847 63.9558 57.6805 57.5953C64.041 57.1995 70.6138 56.992 77.2773 56.992C83.9411 56.992 90.5136 57.1995 96.8744 57.5953C97.2702 63.9558 97.4778 70.5284 97.4778 77.1921C97.4778 77.8896 97.4749 78.6089 97.4688 79.3797C96.4242 79.5962 95.3719 79.78 94.3132 79.9295ZM120.257 68.2377L117.921 70.0282C113.218 73.6327 107.91 76.373 102.279 78.1324C102.28 77.814 102.281 77.5002 102.281 77.1921C102.281 70.6142 102.091 64.1662 101.724 57.9361C111.207 58.6825 120.125 59.8543 128.051 61.3872C128.364 64.0151 128.6 66.674 128.756 69.3569L127.296 68.2374C125.224 66.649 122.33 66.65 120.257 68.2377Z" fill="url(#paint0_linear_113_434)"/>
<path d="M143.3 96.6468C144.187 95.6614 144.108 94.1429 143.123 93.2548C137.806 88.4648 130.935 85.8267 123.777 85.8267C107.832 85.8267 94.8608 98.7985 94.8608 114.743C94.8608 130.687 107.833 143.659 123.777 143.659C139.721 143.659 152.693 130.687 152.693 114.743C152.693 110.343 151.729 106.116 149.827 102.179C149.25 100.985 147.814 100.485 146.619 101.062C145.425 101.639 144.925 103.075 145.501 104.269C147.086 107.549 147.889 111.072 147.889 114.743C147.889 128.039 137.072 138.855 123.777 138.855C110.481 138.855 99.6641 128.039 99.6641 114.743C99.6641 101.447 110.481 90.6305 123.777 90.6305C129.745 90.6305 135.474 92.8302 139.907 96.8242C140.893 97.7119 142.412 97.6331 143.3 96.6468Z" fill="url(#paint1_linear_113_434)"/>
<path d="M133.57 102.986L119.694 121.33L116.413 118.705C115.377 117.877 113.865 118.045 113.037 119.08C112.208 120.116 112.376 121.628 113.412 122.456L118.62 126.623C119.048 126.965 119.578 127.149 120.12 127.149C120.219 127.149 120.319 127.143 120.418 127.131C121.061 127.05 121.645 126.713 122.036 126.196L137.4 105.884C138.2 104.826 137.992 103.32 136.934 102.52C135.877 101.719 134.37 101.929 133.57 102.986Z" fill="url(#paint2_linear_113_434)"/>
<defs>
<linearGradient id="paint0_linear_113_434" x1="82.0001" y1="167.45" x2="82.0001" y2="1.40014" gradientUnits="userSpaceOnUse">
<stop stop-color="#006DF0"/>
<stop offset="1" stop-color="#00E7F0"/>
</linearGradient>
<linearGradient id="paint1_linear_113_434" x1="123.777" y1="144.875" x2="123.777" y2="86.3204" gradientUnits="userSpaceOnUse">
<stop stop-color="#006DF0"/>
<stop offset="1" stop-color="#00E7F0"/>
</linearGradient>
<linearGradient id="paint2_linear_113_434" x1="125.198" y1="127.678" x2="125.198" y2="102.248" gradientUnits="userSpaceOnUse">
<stop stop-color="#006DF0"/>
<stop offset="1" stop-color="#00E7F0"/>
</linearGradient>
</defs>
</svg>
