<svg width="154" height="155" viewBox="0 0 154 155" fill="none" xmlns="http://www.w3.org/2000/svg">
<path d="M59.7601 36.5626C56.9951 36.5626 54.7529 38.8019 54.7529 41.5669C54.7529 44.3318 56.9951 46.5724 59.7601 46.5724C62.525 46.5724 64.7643 44.3315 64.7643 41.5669C64.7643 38.8022 62.525 36.5626 59.7601 36.5626Z" fill="url(#paint0_linear_113_407)"/>
<path d="M73.8939 95.8082C77.6466 95.8082 80.6887 92.7661 80.6887 89.0134C80.6887 85.2608 77.6466 82.2186 73.8939 82.2186C70.1413 82.2186 67.0991 85.2608 67.0991 89.0134C67.0991 92.7661 70.1413 95.8082 73.8939 95.8082Z" fill="url(#paint1_linear_113_407)"/>
<path d="M16.4625 120.783C14.5473 120.783 12.9941 122.334 12.9941 124.251C12.9941 126.168 14.5473 127.721 16.4625 127.721C18.3776 127.721 19.9308 126.168 19.9308 124.251C19.9308 122.334 18.3776 120.783 16.4625 120.783Z" fill="url(#paint2_linear_113_407)"/>
<path d="M80.6879 14.5255C82.3141 14.5255 83.6306 13.2074 83.6306 11.5812C83.6306 9.95493 82.3144 8.63684 80.6879 8.63684C79.0614 8.63684 77.7449 9.95493 77.7449 11.5812C77.7446 13.2074 79.0614 14.5255 80.6879 14.5255Z" fill="url(#paint3_linear_113_407)"/>
<path d="M19.4052 14.4786C17.779 14.4786 16.4622 15.7967 16.4622 17.423C16.4622 19.0495 17.7786 20.3676 19.4052 20.3676C21.0317 20.3676 22.3482 19.0495 22.3482 17.423C22.3485 15.7967 21.0317 14.4786 19.4052 14.4786Z" fill="url(#paint4_linear_113_407)"/>
<path d="M64.6297 133.09C61.9381 133.09 59.76 135.268 59.76 137.957C59.76 140.646 61.9381 142.827 64.6297 142.827C67.3159 142.827 69.494 140.646 69.494 137.957C69.494 135.268 67.3159 133.09 64.6297 133.09Z" fill="url(#paint5_linear_113_407)"/>
<path d="M132.067 44.8104C135.445 44.8104 138.183 42.0688 138.183 38.6879C138.183 35.3073 135.445 32.5699 132.067 32.5699C128.683 32.5699 125.944 35.3073 125.944 38.6879C125.944 42.0688 128.683 44.8104 132.067 44.8104Z" fill="url(#paint6_linear_113_407)"/>
<path d="M107.545 108.157C105.822 108.157 104.427 109.551 104.427 111.272C104.427 112.993 105.822 114.387 107.545 114.387C109.264 114.387 110.657 112.993 110.657 111.272C110.657 109.551 109.265 108.157 107.545 108.157Z" fill="url(#paint7_linear_113_407)"/>
<path d="M137.199 116.416C131.868 116.416 127.123 118.94 124.07 122.845L117.179 117.827C118.453 115.958 119.202 113.701 119.202 111.272C119.202 104.843 113.97 99.6107 107.545 99.6107C103.087 99.6107 99.2062 102.127 97.244 105.814L91.7436 101.915C94.3775 98.2823 95.948 93.8332 95.948 89.0128C95.948 82.8686 93.4169 77.3083 89.3493 73.3053L116.096 50.9296C119.781 55.7266 125.558 58.8387 132.066 58.8387C133.239 58.8387 134.384 58.716 135.505 58.5216L138.924 66.6982C132.597 67.6249 127.716 73.0715 127.716 79.652C127.716 86.8795 133.599 92.7598 140.828 92.7598C148.054 92.7598 153.934 86.8798 153.934 79.652C153.934 72.4235 148.054 66.5432 140.828 66.5432C140.688 66.5432 140.553 66.5608 140.413 66.5637L136.924 58.2196C145.689 56.0373 152.211 48.1207 152.211 38.6872C152.211 27.5781 143.175 18.5392 132.066 18.5392C120.951 18.5392 111.912 27.5781 111.912 38.6872C111.912 42.7808 113.147 46.5877 115.252 49.77L88.2842 72.3357C84.4152 68.9942 79.3936 66.9577 73.8932 66.9577C72.2641 66.9577 70.6818 67.1473 69.1545 67.4846L66.4831 57.1728C72.521 54.5613 76.76 48.5528 76.76 41.5659C76.76 35.7208 73.7936 30.5577 69.289 27.4965L73.9634 20.4835C75.8378 21.9025 78.1617 22.7549 80.6874 22.7549C86.8505 22.7549 91.8605 17.742 91.8605 11.5801C91.8605 5.41861 86.8505 0.405396 80.6874 0.405396C74.5268 0.405396 69.5107 5.41829 69.5107 11.5801C69.5107 14.6997 70.7984 17.5216 72.8682 19.5508L68.0683 26.7505C65.6099 25.3651 62.7781 24.565 59.7594 24.565C54.5098 24.565 49.8121 26.9577 46.6913 30.7079L29.4921 22.1959C30.1811 20.7465 30.578 19.1318 30.578 17.4223C30.578 11.2608 25.5683 6.24757 19.4049 6.24757C13.2453 6.24822 8.22916 11.2614 8.22916 17.423C8.22916 23.5848 13.2453 28.5977 19.4055 28.5977C23.3473 28.5977 26.8127 26.541 28.8009 23.4477L45.8162 31.8678C43.895 34.6209 42.7592 37.9608 42.7592 41.5665C42.7592 43.6585 43.1564 45.6556 43.8511 47.508L28.1757 57.9486C25.1977 54.9034 21.0519 53.0058 16.4654 53.0058C7.42325 53.0058 0.0656738 60.3602 0.0656738 69.401C0.0656738 78.4418 7.42325 85.7956 16.4654 85.7956C25.5043 85.7956 32.8589 78.4415 32.8589 69.401C32.8589 65.4653 31.4605 61.8509 29.142 59.0203L44.42 48.8456C47.1529 54.5827 52.9919 58.5681 59.7598 58.5681C61.6429 58.5681 63.4472 58.2484 65.1407 57.6805L67.7679 67.8437C58.58 70.5064 51.8391 78.9806 51.8391 89.0134C51.8391 91.771 52.3705 94.3998 53.299 96.8348L26.3191 116.326C23.9981 113.445 20.4449 111.594 16.4628 111.594C9.4819 111.594 3.80628 117.273 3.80628 124.252C3.80628 131.231 9.48158 136.909 16.4625 136.909C23.4434 136.909 29.1219 131.23 29.1219 124.251C29.1219 121.765 28.389 119.45 27.1452 117.491L53.8622 98.1882C57.3539 105.776 65.0094 111.068 73.8935 111.068C80.7255 111.068 86.839 107.946 90.8887 103.056L96.6517 107.144C96.1614 108.428 95.8814 109.816 95.8814 111.272C95.8814 112.823 96.1905 114.3 96.7453 115.652L77.0352 126.951C73.99 123.523 69.5639 121.348 64.6298 121.348C55.4682 121.348 48.0174 128.799 48.0174 137.957C48.0174 147.117 55.4685 154.57 64.6298 154.57C73.7885 154.57 81.2393 147.117 81.2393 137.957C81.2393 134.252 80.0045 130.84 77.9461 128.074L97.3644 116.945C99.3613 120.513 103.171 122.933 107.545 122.933C111.031 122.933 114.158 121.385 116.295 118.951L123.235 124.004C121.527 126.62 120.522 129.739 120.522 133.09C120.522 142.283 128.003 149.764 137.199 149.764C146.392 149.764 153.87 142.283 153.87 133.09C153.87 123.896 146.393 116.416 137.199 116.416ZM148.221 79.6526C148.221 83.7302 144.904 87.048 140.829 87.048C136.75 87.048 133.43 83.7305 133.43 79.6526C133.43 75.5741 136.749 72.2576 140.829 72.2576C144.904 72.2576 148.221 75.5741 148.221 79.6526ZM132.067 24.252C140.022 24.252 146.501 30.7278 146.501 38.6879C146.501 46.6496 140.022 53.1253 132.067 53.1253C124.105 53.1253 117.626 46.6496 117.626 38.6879C117.626 30.7278 124.105 24.252 132.067 24.252ZM80.688 6.12009C83.7006 6.12009 86.1503 8.56952 86.1503 11.5811C86.1503 14.5927 83.7009 17.0421 80.688 17.0421C77.6748 17.0421 75.2251 14.5927 75.2251 11.5811C75.2251 8.56952 77.6745 6.12009 80.688 6.12009ZM19.4052 22.8843C16.3923 22.8843 13.9426 20.4345 13.9426 17.423C13.9426 14.4117 16.392 11.9619 19.4052 11.9619C22.4184 11.9619 24.8678 14.4117 24.8678 17.423C24.8678 20.4345 22.4184 22.8843 19.4052 22.8843ZM16.4657 80.0838C10.5735 80.0838 5.77973 75.2913 5.77973 69.401C5.77973 63.5105 10.5738 58.7196 16.4657 58.7196C22.3543 58.7196 27.1455 63.5105 27.1455 69.401C27.1452 75.2909 22.354 80.0838 16.4657 80.0838ZM48.4726 41.5665C48.4726 35.3435 53.5351 30.2793 59.7598 30.2793C65.9844 30.2793 71.0469 35.3435 71.0469 41.5665C71.0469 47.7911 65.9841 52.8537 59.7598 52.8537C53.5351 52.854 48.4726 47.7911 48.4726 41.5665ZM16.4625 131.195C12.6347 131.195 9.51649 128.08 9.51649 124.251C9.51649 120.422 12.6344 117.307 16.4625 117.307C20.2928 117.307 23.4084 120.422 23.4084 124.251C23.4084 128.08 20.2928 131.195 16.4625 131.195ZM73.8939 105.354C64.8838 105.354 57.5528 98.0229 57.5528 89.0128C57.5528 80.0027 64.8838 72.6717 73.8939 72.6717C82.9039 72.6717 90.2352 80.0027 90.2352 89.0128C90.2352 98.0229 82.9039 105.354 73.8939 105.354ZM64.6298 148.856C58.6182 148.856 53.7283 143.967 53.7283 137.957C53.7283 131.949 58.6185 127.06 64.6298 127.06C70.6385 127.06 75.5262 131.949 75.5262 137.957C75.5259 143.967 70.6385 148.856 64.6298 148.856ZM107.545 117.219C104.263 117.219 101.595 114.55 101.595 111.272C101.595 107.994 104.263 105.325 107.545 105.325C110.823 105.325 113.489 107.994 113.489 111.272C113.489 114.55 110.824 117.219 107.545 117.219ZM137.199 144.052C131.156 144.052 126.236 139.134 126.236 133.09C126.236 127.047 131.155 122.13 137.199 122.13C143.243 122.13 148.16 127.047 148.16 133.09C148.16 139.134 143.243 144.052 137.199 144.052Z" fill="url(#paint8_linear_113_407)"/>
<path d="M137.199 128.201C134.495 128.201 132.306 130.389 132.306 133.09C132.306 135.793 134.495 137.98 137.199 137.98C139.897 137.98 142.087 135.793 142.087 133.09C142.087 130.389 139.897 128.201 137.199 128.201Z" fill="url(#paint9_linear_113_407)"/>
<path d="M16.4658 64.6095C13.8149 64.6095 11.6685 66.754 11.6685 69.4007C11.6685 72.0472 13.8146 74.1929 16.4658 74.1929C19.1106 74.1929 21.2535 72.0472 21.2535 69.4007C21.2535 66.754 19.1106 64.6095 16.4658 64.6095Z" fill="url(#paint10_linear_113_407)"/>
<path d="M137.199 79.6526C137.199 81.6571 138.822 83.2818 140.828 83.2818C142.831 83.2818 144.454 81.6571 144.454 79.6526C144.454 77.6487 142.831 76.0238 140.828 76.0238C138.823 76.0238 137.199 77.6484 137.199 79.6526Z" fill="url(#paint11_linear_113_407)"/>
<defs>
<linearGradient id="paint0_linear_113_407" x1="59.7586" y1="46.783" x2="59.7586" y2="36.6481" gradientUnits="userSpaceOnUse">
<stop stop-color="#006DF0"/>
<stop offset="1" stop-color="#00E7F0"/>
</linearGradient>
<linearGradient id="paint1_linear_113_407" x1="73.8939" y1="96.0941" x2="73.8939" y2="82.3346" gradientUnits="userSpaceOnUse">
<stop stop-color="#006DF0"/>
<stop offset="1" stop-color="#00E7F0"/>
</linearGradient>
<linearGradient id="paint2_linear_113_407" x1="16.4625" y1="127.867" x2="16.4625" y2="120.842" gradientUnits="userSpaceOnUse">
<stop stop-color="#006DF0"/>
<stop offset="1" stop-color="#00E7F0"/>
</linearGradient>
<linearGradient id="paint3_linear_113_407" x1="80.6877" y1="14.6494" x2="80.6877" y2="8.68711" gradientUnits="userSpaceOnUse">
<stop stop-color="#006DF0"/>
<stop offset="1" stop-color="#00E7F0"/>
</linearGradient>
<linearGradient id="paint4_linear_113_407" x1="19.4052" y1="20.4915" x2="19.4052" y2="14.5289" gradientUnits="userSpaceOnUse">
<stop stop-color="#006DF0"/>
<stop offset="1" stop-color="#00E7F0"/>
</linearGradient>
<linearGradient id="paint5_linear_113_407" x1="64.627" y1="143.031" x2="64.627" y2="133.174" gradientUnits="userSpaceOnUse">
<stop stop-color="#006DF0"/>
<stop offset="1" stop-color="#00E7F0"/>
</linearGradient>
<linearGradient id="paint6_linear_113_407" x1="132.064" y1="45.0679" x2="132.064" y2="32.6744" gradientUnits="userSpaceOnUse">
<stop stop-color="#006DF0"/>
<stop offset="1" stop-color="#00E7F0"/>
</linearGradient>
<linearGradient id="paint7_linear_113_407" x1="107.542" y1="114.518" x2="107.542" y2="108.21" gradientUnits="userSpaceOnUse">
<stop stop-color="#006DF0"/>
<stop offset="1" stop-color="#00E7F0"/>
</linearGradient>
<linearGradient id="paint8_linear_113_407" x1="76.9999" y1="157.813" x2="76.9999" y2="1.72156" gradientUnits="userSpaceOnUse">
<stop stop-color="#006DF0"/>
<stop offset="1" stop-color="#00E7F0"/>
</linearGradient>
<linearGradient id="paint9_linear_113_407" x1="137.197" y1="138.186" x2="137.197" y2="128.285" gradientUnits="userSpaceOnUse">
<stop stop-color="#006DF0"/>
<stop offset="1" stop-color="#00E7F0"/>
</linearGradient>
<linearGradient id="paint10_linear_113_407" x1="16.461" y1="74.3946" x2="16.461" y2="64.6913" gradientUnits="userSpaceOnUse">
<stop stop-color="#006DF0"/>
<stop offset="1" stop-color="#00E7F0"/>
</linearGradient>
<linearGradient id="paint11_linear_113_407" x1="140.827" y1="83.4345" x2="140.827" y2="76.0858" gradientUnits="userSpaceOnUse">
<stop stop-color="#006DF0"/>
<stop offset="1" stop-color="#00E7F0"/>
</linearGradient>
</defs>
</svg>
