<svg width="164" height="164" viewBox="0 0 164 164" fill="none" xmlns="http://www.w3.org/2000/svg">
<path d="M15.3755 83.9362V97.9949C15.3755 101.761 18.4489 104.825 22.2266 104.825H54.9947V107.526C54.9947 111.603 58.3208 114.919 62.4089 114.919H76.2444C77.5714 114.919 78.6467 113.846 78.6467 112.523C78.6467 111.201 77.5714 110.128 76.2444 110.128H62.4089C60.9701 110.128 59.7993 108.961 59.7993 107.526C59.7993 104.529 59.7993 94.8035 59.7993 91.6871C59.7993 79.5024 69.6024 69.5434 81.551 69.3837C93.6203 69.2176 103.9 79.025 103.9 91.3671V107.526C103.9 108.961 102.73 110.128 101.291 110.128H87.4556C86.1285 110.128 85.0533 111.201 85.0533 112.523C85.0533 113.846 86.1285 114.919 87.4556 114.919H101.291C105.379 114.919 108.705 111.602 108.705 107.526V104.825H141.473C145.251 104.825 148.324 101.761 148.324 97.9949V83.6522C148.324 73.7031 142.231 65.209 133.66 61.5468C136.282 59.7986 138.423 57.3258 139.756 54.333C140.295 53.1239 139.749 51.7088 138.536 51.1717C137.325 50.6348 135.904 51.1796 135.365 52.3884C133.409 56.7807 129.033 59.6192 124.218 59.6192C117.494 59.6192 112.024 54.1651 112.024 47.461C112.024 40.7393 117.51 35.3028 124.218 35.3028C129.282 35.3028 133.743 38.3447 135.582 43.0525C136.063 44.2849 137.457 44.8949 138.692 44.4152C139.929 43.9352 140.541 42.5466 140.059 41.3139C137.496 34.7522 131.278 30.5123 124.218 30.5123C121.325 30.5123 118.598 31.2389 116.21 32.5157C115.032 31.7339 113.802 31.0626 112.527 30.5101C116.972 27.5071 119.899 22.4315 119.899 16.6864C119.899 7.48557 112.391 0 103.163 0C93.9345 0 86.4271 7.48525 86.4271 16.6864C86.4271 22.4411 89.364 27.5244 93.8214 30.5251C92.1593 31.2456 90.5786 32.1609 89.1125 33.2522C86.8761 32.3174 84.4229 31.7994 81.8501 31.7994C79.3373 31.7994 76.9395 32.2963 74.7453 33.1902C73.2886 32.1216 71.7235 31.2284 70.0816 30.5219C74.5362 27.5205 77.4705 22.4388 77.4705 16.6868C77.4705 7.48589 69.9631 0.000319364 60.7346 0.000319364C51.5062 0.000319364 43.9987 7.48557 43.9987 16.6868C43.9987 22.4366 46.9309 27.5167 51.3822 30.5184C50.077 31.0869 48.8197 31.7773 47.6211 32.586C45.2025 31.2651 42.4289 30.5127 39.482 30.5127C30.1088 30.5127 22.4832 38.1158 22.4832 47.4613C22.4832 53.3382 25.5002 58.5244 30.0697 61.566C21.4524 65.2904 15.3755 73.9497 15.3755 83.9362ZM124.492 64.4154C134.992 64.5632 143.519 73.1455 143.519 83.6519V97.9946C143.519 99.1194 142.601 100.035 141.473 100.035H108.705V91.3665C108.705 87.2307 107.717 82.8522 105.587 78.864C107.711 70.8812 114.676 64.4799 124.492 64.4154ZM91.2311 16.6864C91.2311 10.127 96.5835 4.79046 103.162 4.79046C109.741 4.79046 115.094 10.1267 115.094 16.6864C115.094 23.2462 109.741 28.5824 103.162 28.5824C96.5835 28.5824 91.2311 23.2459 91.2311 16.6864ZM102.906 33.3729C106.144 33.3263 109.262 34.0962 112.066 35.6091C108.951 38.7813 107.219 43.0576 107.219 47.461C107.219 53.2568 110.197 58.5046 114.795 61.5612C109.325 63.9108 104.812 68.2819 102.239 73.9873C99.5114 70.8173 95.9534 68.1682 91.8445 66.5171C97.6885 62.8572 101.155 56.3198 100.642 49.2216C100.262 43.9837 97.7154 39.1962 93.6802 35.961C96.4704 34.3198 99.6543 33.4163 102.906 33.3729ZM81.8495 36.5898C89.5735 36.5898 95.8929 42.8564 95.8929 50.5914C95.8929 58.3085 89.5959 64.5894 81.8562 64.5926C81.8543 64.5926 81.8524 64.5929 81.8505 64.5929H81.8498C81.8479 64.5929 81.8457 64.5926 81.8437 64.5926C81.8418 64.5926 81.8396 64.5926 81.8373 64.5926C74.1185 64.5849 67.8068 58.3299 67.8068 50.5914C67.8068 42.842 74.1432 36.5898 81.8495 36.5898ZM70.1165 35.8815C65.7139 39.3581 63.0021 44.7282 63.0021 50.5917C63.0021 57.054 66.3404 63.0629 71.8542 66.5168C67.8981 68.1117 64.3647 70.6545 61.5396 73.9752C59.0495 68.3483 54.4921 63.9274 48.9206 61.5504C53.5187 58.494 56.4812 53.2108 56.4812 47.461C56.4812 42.9678 54.674 38.7526 51.7121 35.6924C54.3893 34.2087 57.372 33.4144 60.4781 33.3729C63.8599 33.3224 67.1956 34.2045 70.1165 35.8815ZM48.8028 16.6864C48.8028 10.127 54.1551 4.79046 60.734 4.79046C67.3129 4.79046 72.6652 10.1267 72.6652 16.6864C72.6652 23.2462 67.3129 28.5824 60.734 28.5824C54.1551 28.5824 48.8028 23.2459 48.8028 16.6864ZM27.2875 47.461C27.2875 40.7569 32.7578 35.3028 39.4817 35.3028C46.1788 35.3028 51.6759 40.7304 51.6759 47.461C51.6759 53.9619 46.4594 59.5974 39.418 59.6176C32.7235 59.5831 27.2875 54.1437 27.2875 47.461ZM39.22 64.4093C48.0638 64.2831 55.986 70.3159 58.185 78.9119C56.1507 82.7347 54.995 87.1515 54.995 91.6865V100.035H22.2266C21.0985 100.035 20.1801 99.1194 20.1801 97.9946V83.9358C20.1801 73.3093 28.7212 64.5498 39.22 64.4093Z" fill="url(#paint0_linear_113_382)"/>
<path d="M100.666 145.293C102.297 143.708 102.873 141.382 102.169 139.223C101.466 137.063 99.6279 135.519 97.3745 135.192L91.0214 134.272C90.6518 134.218 90.3324 133.987 90.1672 133.653L87.326 127.913C86.3183 125.877 84.2773 124.612 82.0002 124.612C79.7228 124.612 77.6821 125.877 76.674 127.913L73.8329 133.653C73.6676 133.987 73.3482 134.219 72.9786 134.272L66.6252 135.193C64.3718 135.519 62.5345 137.064 61.8308 139.223C61.1274 141.383 61.7033 143.709 63.3337 145.293L67.9308 149.761C68.1983 150.021 68.3203 150.395 68.2575 150.762L67.172 157.071C66.7873 159.309 67.6928 161.528 69.5353 162.863C71.3767 164.197 73.7733 164.37 75.7897 163.313L81.4717 160.335C81.8026 160.162 82.1975 160.162 82.5277 160.335L88.2101 163.313C90.2258 164.37 92.6224 164.197 94.4648 162.863C96.3072 161.528 97.2127 159.309 96.8274 157.071L95.7425 150.763C95.6794 150.395 95.8015 150.021 96.0689 149.761L100.666 145.293ZM92.7156 146.33C91.3158 147.691 90.6771 149.65 91.0077 151.572L92.0929 157.881C92.2005 158.506 91.8129 158.863 91.6416 158.987C91.4699 159.111 91.0106 159.368 90.4468 159.073L84.7642 156.094C83.0338 155.187 80.9678 155.188 79.2369 156.094L73.5545 159.073C72.9908 159.368 72.5318 159.112 72.3601 158.987C72.1884 158.862 71.8008 158.506 71.9084 157.88L72.994 151.572C73.3242 149.651 72.6858 147.691 71.2858 146.33L66.6886 141.863C66.2325 141.42 66.3357 140.904 66.4016 140.703C66.467 140.502 66.6877 140.024 67.3171 139.933L73.6702 139.013C75.6052 138.733 77.2772 137.521 78.1424 135.773L80.9835 130.033C81.2651 129.464 81.7891 129.403 82.0011 129.403C82.2129 129.403 82.7369 129.464 83.0185 130.034L85.8596 135.774C86.7248 137.522 88.3968 138.733 90.3315 139.013L96.6842 139.933C97.3146 140.025 97.535 140.502 97.6003 140.704C97.666 140.905 97.7691 141.42 97.3133 141.863L92.7156 146.33Z" fill="url(#paint1_linear_113_382)"/>
<path d="M136.192 131.303C135.599 129.48 134.049 128.177 132.147 127.902L127.46 127.223C127.393 127.213 127.334 127.171 127.304 127.11L125.209 122.875C124.358 121.157 122.636 120.09 120.714 120.09C118.793 120.09 117.071 121.157 116.22 122.875L114.125 127.11C114.094 127.171 114.036 127.213 113.969 127.223L109.282 127.902C107.38 128.177 105.83 129.48 105.237 131.303C104.643 133.125 105.129 135.087 106.505 136.425L109.896 139.72C109.945 139.768 109.967 139.836 109.956 139.903L109.155 144.557C108.831 146.446 109.594 148.318 111.15 149.444C112.703 150.57 114.725 150.716 116.427 149.824L120.619 147.627C120.679 147.595 120.752 147.596 120.811 147.627L125.003 149.824C126.704 150.715 128.726 150.57 130.281 149.444C131.836 148.318 132.6 146.445 132.275 144.557L131.475 139.902C131.463 139.836 131.485 139.768 131.534 139.721L134.926 136.425H134.925C136.3 135.087 136.786 133.125 136.192 131.303ZM131.571 132.994L128.179 136.29C126.997 137.438 126.459 139.092 126.738 140.713L127.539 145.366C127.547 145.414 127.56 145.493 127.456 145.568C127.352 145.643 127.281 145.606 127.238 145.584L123.046 143.387C122.316 143.004 121.515 142.813 120.714 142.813C119.913 142.813 119.112 143.004 118.382 143.387L114.19 145.584C114.148 145.607 114.077 145.644 113.972 145.568C113.868 145.493 113.882 145.414 113.89 145.366L114.691 140.713C114.97 139.092 114.431 137.438 113.249 136.29L109.858 132.994C109.823 132.961 109.766 132.904 109.806 132.782C109.845 132.66 109.925 132.649 109.972 132.642L114.659 131.963C116.292 131.726 117.702 130.705 118.432 129.23L120.528 124.995C120.549 124.952 120.585 124.88 120.714 124.88C120.843 124.88 120.878 124.953 120.9 124.995L122.995 129.229C123.725 130.704 125.136 131.726 126.769 131.963L131.455 132.642C131.503 132.649 131.583 132.66 131.622 132.782C131.662 132.904 131.605 132.96 131.571 132.994Z" fill="url(#paint2_linear_113_382)"/>
<path d="M162.617 123.435C163.871 122.216 164.314 120.426 163.773 118.765C163.232 117.104 161.818 115.916 160.084 115.664L156.316 115.119L154.63 111.714C153.855 110.147 152.285 109.174 150.533 109.175C148.781 109.175 147.211 110.148 146.436 111.714L144.751 115.119L140.982 115.664C139.248 115.916 137.835 117.104 137.294 118.765C136.753 120.426 137.196 122.215 138.45 123.434L141.177 126.084L140.533 129.827C140.237 131.548 140.934 133.255 142.351 134.282C143.771 135.31 145.614 135.44 147.162 134.629L150.533 132.862L153.903 134.628C155.453 135.441 157.297 135.309 158.715 134.282C160.132 133.255 160.829 131.548 160.533 129.826L159.889 126.084L162.617 123.435ZM156.447 122.741C155.37 123.788 154.879 125.295 155.133 126.773L155.717 130.167L152.659 128.564C151.994 128.215 151.264 128.041 150.533 128.041C149.803 128.041 149.073 128.215 148.407 128.564L145.35 130.167L145.934 126.772C146.188 125.294 145.696 123.787 144.619 122.741L142.146 120.337L145.564 119.841C147.053 119.626 148.339 118.694 149.004 117.35L150.533 114.261L152.061 117.35C152.727 118.694 154.013 119.625 155.501 119.841L158.919 120.337L156.447 122.741Z" fill="url(#paint3_linear_113_382)"/>
<path d="M29.0763 136.424L32.4677 139.72C32.5164 139.767 32.5388 139.835 32.5273 139.903L31.7268 144.556C31.4017 146.444 32.1657 148.317 33.7205 149.443C35.2749 150.569 37.2977 150.716 38.9989 149.824L43.1905 147.626C43.2507 147.594 43.3231 147.595 43.383 147.626L47.5749 149.823C49.2751 150.715 51.2976 150.57 52.8527 149.443C54.4075 148.317 55.1714 146.444 54.8469 144.556L54.0462 139.902C54.0346 139.835 54.057 139.767 54.1061 139.72L57.4969 136.424C58.8733 135.087 59.3589 133.124 58.7653 131.302C58.1715 129.48 56.6215 128.176 54.7195 127.901L50.0333 127.222C49.9657 127.212 49.9071 127.17 49.8773 127.109L47.7815 122.875C46.9311 121.157 45.2091 120.089 43.2872 120.089C41.3657 120.089 39.6437 121.157 38.7932 122.875L36.6974 127.109C36.6673 127.17 36.609 127.212 36.5418 127.222L31.855 127.901C29.9533 128.177 28.4033 129.48 27.8094 131.302C27.2143 133.124 27.7002 135.087 29.0763 136.424ZM32.3774 132.782C32.4171 132.66 32.4969 132.649 32.5443 132.642L37.2311 131.963C38.864 131.726 40.2744 130.705 41.0043 129.229L43.1001 124.995C43.1213 124.952 43.1572 124.88 43.2856 124.88C43.4144 124.88 43.4502 124.952 43.4714 124.995L45.5672 129.229C46.2972 130.704 47.7078 131.726 49.3408 131.963L54.0269 132.641C54.0747 132.649 54.1544 132.66 54.1941 132.782C54.2339 132.904 54.1762 132.96 54.1416 132.993L50.7505 136.289C49.5688 137.438 49.0301 139.092 49.3094 140.712L50.1098 145.366C50.1179 145.413 50.1313 145.492 50.0272 145.568C49.9234 145.643 49.852 145.606 49.8094 145.583L45.6175 143.386C44.1572 142.621 42.4134 142.621 40.9531 143.386L36.7615 145.583C36.7192 145.606 36.6481 145.644 36.5434 145.568C36.4393 145.492 36.4527 145.413 36.4607 145.366L37.2612 140.713C37.5405 139.092 37.0017 137.438 35.8201 136.289L32.429 132.993C32.3957 132.96 32.3377 132.904 32.3774 132.782Z" fill="url(#paint4_linear_113_382)"/>
<path d="M13.4663 109.175C11.7145 109.175 10.1447 110.147 9.36921 111.714L7.68405 115.119L3.91526 115.664C2.18141 115.916 0.768198 117.104 0.226871 118.765C-0.314135 120.426 0.128535 122.216 1.38288 123.435L4.11001 126.084L3.46586 129.827C3.16989 131.548 3.86657 133.256 5.28395 134.282C6.70069 135.309 8.5444 135.442 10.0954 134.629L13.4657 132.862L16.8363 134.628C18.3866 135.441 20.2303 135.309 21.6477 134.282C23.0651 133.256 23.7618 131.548 23.4655 129.826L22.8217 126.084L25.5488 123.434C26.8031 122.215 27.2464 120.426 26.7048 118.765C26.1638 117.103 24.7503 115.915 23.0164 115.664L19.2476 115.119L17.5625 111.714C16.7873 110.148 15.2181 109.175 13.4663 109.175C13.467 109.175 13.4666 109.175 13.4663 109.175ZM18.4353 119.841L21.8537 120.337L19.3802 122.741C18.3033 123.787 17.812 125.294 18.066 126.773L18.6496 130.167L15.5919 128.564C14.261 127.867 12.6716 127.867 11.3401 128.564L8.28271 130.167L8.86632 126.773C9.12097 125.296 8.63025 123.788 7.5524 122.741L5.07895 120.337L8.49732 119.841C9.98549 119.626 11.2715 118.694 11.9371 117.35L13.4657 114.261L14.9942 117.35C15.6608 118.694 16.9468 119.626 18.4353 119.841Z" fill="url(#paint5_linear_113_382)"/>
<defs>
<linearGradient id="paint0_linear_113_382" x1="81.8498" y1="117.336" x2="81.8498" y2="0.981112" gradientUnits="userSpaceOnUse">
<stop stop-color="#006DF0"/>
<stop offset="1" stop-color="#00E7F0"/>
</linearGradient>
<linearGradient id="paint1_linear_113_382" x1="82.0001" y1="164.829" x2="82.0001" y2="124.949" gradientUnits="userSpaceOnUse">
<stop stop-color="#006DF0"/>
<stop offset="1" stop-color="#00E7F0"/>
</linearGradient>
<linearGradient id="paint2_linear_113_382" x1="120.714" y1="151.042" x2="120.714" y2="120.349" gradientUnits="userSpaceOnUse">
<stop stop-color="#006DF0"/>
<stop offset="1" stop-color="#00E7F0"/>
</linearGradient>
<linearGradient id="paint3_linear_113_382" x1="150.533" y1="135.703" x2="150.533" y2="109.396" gradientUnits="userSpaceOnUse">
<stop stop-color="#006DF0"/>
<stop offset="1" stop-color="#00E7F0"/>
</linearGradient>
<linearGradient id="paint4_linear_113_382" x1="43.2869" y1="151.041" x2="43.2869" y2="120.348" gradientUnits="userSpaceOnUse">
<stop stop-color="#006DF0"/>
<stop offset="1" stop-color="#00E7F0"/>
</linearGradient>
<linearGradient id="paint5_linear_113_382" x1="13.466" y1="135.704" x2="13.466" y2="109.396" gradientUnits="userSpaceOnUse">
<stop stop-color="#006DF0"/>
<stop offset="1" stop-color="#00E7F0"/>
</linearGradient>
</defs>
</svg>
