<svg width="100" height="26" viewBox="0 0 100 26" fill="none" xmlns="http://www.w3.org/2000/svg">
<path fill-rule="evenodd" clip-rule="evenodd" d="M54.3632 6.59799V18.947H57.0827V4.81473H54.1403L54.3632 6.59799ZM89.189 18.6573C89.5902 18.8505 90.1623 18.947 90.9053 18.947H92.0199C93.1641 18.947 94.1747 18.9025 95.0514 18.8133C95.9282 18.7093 96.6786 18.6053 97.3028 18.5012L98.1721 18.947H100V4.81473H97.2805V9.206C96.8347 9.14656 96.1882 9.09455 95.3412 9.04996C94.509 8.99052 93.4093 8.9608 92.0422 8.9608H90.9053C90.1772 8.9608 89.6051 9.06483 89.189 9.27287C88.7877 9.48092 88.4979 9.74098 88.3196 10.053C88.1562 10.3651 88.0521 10.6846 88.0076 11.0115C87.9778 11.3236 87.963 11.5911 87.963 11.814V16.0938C87.963 16.3613 87.9778 16.6585 88.0076 16.9855C88.0521 17.3124 88.1562 17.6245 88.3196 17.9217C88.4979 18.2189 88.7877 18.4641 89.189 18.6573ZM96.5895 17.03H91.7524C91.0391 17.03 90.6824 16.7328 90.6824 16.1384V11.7694C90.6824 11.175 91.0391 10.8778 91.7524 10.8778H92.8892C93.766 10.8778 94.5907 10.9001 95.3635 10.9447C96.1362 10.9744 96.7752 11.0041 97.2805 11.0338V16.3613C97.2805 16.6585 97.2433 16.8443 97.169 16.9186C97.0947 16.9929 96.9016 17.03 96.5895 17.03ZM73.5794 8.96077V18.947H76.2988V11.3682C76.2988 11.1453 76.336 11.0115 76.4103 10.9669C76.4995 10.9075 76.6852 10.8778 76.9676 10.8778H81.8269C82.5402 10.8778 82.8969 11.175 82.8969 11.7694V18.947H85.6164V11.814C85.6164 11.5911 85.5941 11.3236 85.5495 11.0115C85.5198 10.6846 85.4157 10.3651 85.2374 10.053C85.074 9.74094 84.7916 9.48089 84.3904 9.27284C83.9891 9.06479 83.417 8.96077 82.674 8.96077H81.5595C80.4301 8.96077 79.427 9.00535 78.5502 9.09451C77.6734 9.18368 76.923 9.2877 76.2988 9.40658L75.4072 8.96077H73.5794ZM62.4759 18.947C61.7329 18.947 61.1608 18.8504 60.7595 18.6572C60.3583 18.464 60.0685 18.2188 59.8902 17.9216C59.7267 17.6244 59.6227 17.3124 59.5781 16.9854C59.5484 16.6585 59.5336 16.3613 59.5336 16.0938V11.814C59.5336 11.5911 59.5484 11.3236 59.5781 11.0115C59.6227 10.6846 59.7267 10.3651 59.8902 10.053C60.0685 9.74094 60.3583 9.48089 60.7595 9.27284C61.1756 9.06479 61.7478 8.96077 62.4759 8.96077H67.2684C68.2492 8.96077 69.0145 9.05736 69.5644 9.25055C70.1291 9.42887 70.5229 9.72608 70.7458 10.1422C70.9836 10.5583 71.1024 11.1155 71.1024 11.814V15.113H67.2016C65.8641 15.113 64.7719 15.0833 63.9248 15.0238C63.0926 14.9644 62.5354 14.9273 62.253 14.9124V16.1384C62.2382 16.7328 62.5948 17.03 63.323 17.03H64.4598C65.2623 17.03 66.0424 17.0226 66.8003 17.0077C67.5731 16.978 68.279 16.9483 68.918 16.9186C69.557 16.874 70.0696 16.8368 70.456 16.8071L71.3476 18.256C71.3476 18.7167 69.8839 18.947 66.9564 18.947H62.4759ZM62.253 13.196H68.383V11.7694C68.383 11.4722 68.3458 11.2641 68.2715 11.1453C68.2121 11.0264 68.0189 10.9521 67.692 10.9224C67.365 10.8926 66.8078 10.8778 66.0202 10.8778H63.323C62.6097 10.8778 62.253 11.175 62.253 11.7694V13.196ZM43.0369 18.947C42.2939 18.947 41.7217 18.8504 41.3205 18.6572C40.9193 18.464 40.6295 18.2188 40.4512 17.9216C40.2877 17.6244 40.1837 17.3124 40.1391 16.9854C40.1094 16.6585 40.0945 16.3613 40.0945 16.0938V11.814C40.0945 11.5911 40.1094 11.3236 40.1391 11.0115C40.1837 10.6846 40.2877 10.3651 40.4512 10.053C40.6295 9.74094 40.9193 9.48089 41.3205 9.27284C41.7366 9.06479 42.3087 8.96077 43.0369 8.96077H47.8294C48.8102 8.96077 49.5755 9.05736 50.1253 9.25055C50.69 9.42887 51.0839 9.72608 51.3068 10.1422C51.5445 10.5583 51.6634 11.1155 51.6634 11.814V15.113H47.7625C46.4251 15.113 45.3328 15.0833 44.4858 15.0238C43.6536 14.9644 43.0963 14.9273 42.814 14.9124V16.1384C42.7991 16.7328 43.1558 17.03 43.8839 17.03H45.0208C45.8232 17.03 46.6034 17.0226 47.3613 17.0077C48.134 16.978 48.8399 16.9483 49.4789 16.9186C50.1179 16.874 50.6306 16.8368 51.017 16.8071L51.9086 18.256C51.9086 18.7167 50.4448 18.947 47.5173 18.947H43.0369ZM42.814 13.196H48.9439V11.7694C48.9439 11.4722 48.9068 11.2641 48.8325 11.1453C48.773 11.0264 48.5799 10.9521 48.2529 10.9224C47.926 10.8926 47.3687 10.8778 46.5811 10.8778H43.8839C43.1706 10.8778 42.814 11.175 42.814 11.7694V13.196ZM25.8572 7.6234V18.9471H28.7996V13.4413H37.1363V11.2345H28.7996V7.98005H39.5437V5.84014H25.6343L25.8572 7.6234Z" fill="#F3F6F9"/>
<path fill-rule="evenodd" clip-rule="evenodd" d="M0.931236 0C0.416928 0 0 0.417608 0 0.932754V18.444C0 18.7804 0.180825 19.0907 0.473235 19.2562L6.6675 22.7607C6.97789 22.9364 7.36212 22.7117 7.36212 22.3547V7.92479C7.36212 7.53843 7.67481 7.22523 8.06054 7.22523H16.2472C16.7615 7.22523 17.1784 6.80762 17.1784 6.29247V5.62532C17.1784 5.11018 16.7615 4.69257 16.2472 4.69257H5.76482C5.25051 4.69257 4.83358 5.11018 4.83358 5.62532V18.0155C4.83358 18.3726 4.44935 18.5972 4.13896 18.4216L3.00152 17.778C2.70912 17.6125 2.52831 17.3022 2.52831 16.9659V3.23211C2.52831 2.84575 2.841 2.53254 3.22673 2.53254H18.7851C19.1709 2.53254 19.4835 2.84575 19.4835 3.23211V16.9659C19.4835 17.3022 19.3027 17.6125 19.0103 17.778L12.9648 21.1986C12.6544 21.3742 12.2702 21.1496 12.2702 20.7925V12.6077C12.2702 12.3501 12.4787 12.1413 12.7358 12.1413H13.7185C14.2328 12.1413 14.6497 11.7237 14.6497 11.2086V10.5415C14.6497 10.0264 14.2328 9.60876 13.7185 9.60876H10.673C10.1587 9.60876 9.74178 10.0264 9.74178 10.5415V23.9559C9.74178 24.2923 9.92259 24.6026 10.215 24.768L10.5479 24.9564C10.8321 25.1173 11.1797 25.1173 11.464 24.9564L21.5389 19.2562C21.8313 19.0907 22.0121 18.7804 22.0121 18.444V0.932754C22.0121 0.417609 21.5952 0 21.0808 0H0.931236Z" fill="url(#paint0_linear_7_85)"/>
<defs>
<linearGradient id="paint0_linear_7_85" x1="-7.33348" y1="-8.51138" x2="16.464" y2="24.448" gradientUnits="userSpaceOnUse">
<stop stop-color="#EDFEC7"/>
<stop offset="0.206779" stop-color="#B2F2D2"/>
<stop offset="0.46731" stop-color="#79D7CF"/>
<stop offset="1" stop-color="#3277AA"/>
</linearGradient>
</defs>
</svg>
